inDegrees=no
num_controls=7
num_derivatives=13
num_iterations=37
num_multipliers=7
num_parameters=0
num_slacks=7
num_states=26
objective=0.426568
objective_accelerations=0.059454
objective_balance=0.001126
objective_effort=0.015657
objective_height=0.344353
objective_ligament=0.005979
solver_duration=539.097796
status=Solve_Succeeded
success=true
DataType=double
version=3
OpenSimVersion=4.5
endheader
time	/jointset/ground_pelvis/pelvis_tilt/value	/jointset/ground_pelvis/pelvis_tx/value	/jointset/ground_pelvis/pelvis_ty/value	/jointset/hip_l/hip_flexion_l/value	/jointset/hip_l/hip_adduction_l/value	/jointset/hip_l/hip_rotation_l/value	/jointset/back/lumbar_extension/value	/jointset/patellofemoral_l/patellar_flexion_l/value	/jointset/knee_l/knee_flexion_l/value	/jointset/knee_l/knee_adduction_l/value	/jointset/knee_l/knee_rotation_l/value	/jointset/ankle_l/ankle_angle_l/value	/jointset/subtalar_l/subtalar_angle_l/value	/jointset/ground_pelvis/pelvis_tilt/speed	/jointset/ground_pelvis/pelvis_tx/speed	/jointset/ground_pelvis/pelvis_ty/speed	/jointset/hip_l/hip_flexion_l/speed	/jointset/hip_l/hip_adduction_l/speed	/jointset/hip_l/hip_rotation_l/speed	/jointset/back/lumbar_extension/speed	/jointset/patellofemoral_l/patellar_flexion_l/speed	/jointset/knee_l/knee_flexion_l/speed	/jointset/knee_l/knee_adduction_l/speed	/jointset/knee_l/knee_rotation_l/speed	/jointset/ankle_l/ankle_angle_l/speed	/jointset/subtalar_l/subtalar_angle_l/speed	/forceset/tau_hip_flexion_l	/forceset/tau_hip_adduction_l	/forceset/tau_hip_rotation_l	/forceset/tau_knee_flexion_l	/forceset/tau_ankle_angle_l	/forceset/tau_subtalar_angle_l	/forceset/tau_lumbar_extension	lambda_cid13_p0	lambda_cid13_p1	lambda_cid13_p2	lambda_cid13_p3	lambda_cid13_p4	lambda_cid13_p5	lambda_cid14_p0	/jointset/ground_pelvis/pelvis_tilt/accel	/jointset/ground_pelvis/pelvis_tx/accel	/jointset/ground_pelvis/pelvis_ty/accel	/jointset/hip_l/hip_flexion_l/accel	/jointset/hip_l/hip_adduction_l/accel	/jointset/hip_l/hip_rotation_l/accel	/jointset/back/lumbar_extension/accel	/jointset/patellofemoral_l/patellar_flexion_l/accel	/jointset/knee_l/knee_flexion_l/accel	/jointset/knee_l/knee_adduction_l/accel	/jointset/knee_l/knee_rotation_l/accel	/jointset/ankle_l/ankle_angle_l/accel	/jointset/subtalar_l/subtalar_angle_l/accel	gamma_cid13_p0	gamma_cid13_p1	gamma_cid13_p2	gamma_cid13_p3	gamma_cid13_p4	gamma_cid13_p5	gamma_cid14_p0
1.5	-0.3542824049217994	0.05693789927887721	0.7891107079999272	1.016079322447639	-0.3606826383611844	-0.04431915971528266	-0.3296161161418765	0.8262463610204928	0.8262463610204236	-0.04131131849241962	-0.1704755550234159	0.2832793061338427	0.1549846551956681	0.504122966509471	0.2701384970736357	0.503409497523326	-2.348206544354165	-0.004559192990504104	-0.5988046263949848	0.6098264822234984	-2.22982402244661	-2.229824022446545	-0.3137140943775472	0.04777777124437801	-0.5617012694190412	-0.2285241341920366	-0.1383797261192266	0.08328136901327868	0.001174261244833539	-0.1194099687577795	-0.04367448867498839	-0.01810495043691402	0.1294513352988367	-39.851697362226	15.59328653035339	-3.626614664170757	0.7868492872037071	-428.2861944350823	-20.21179365897339	-9.878999158465701	0.6102508561668928	0.5061381197036986	-0.7962980984217974	-1.186423011161679	0.3441831507392868	-0.5289677942086294	1.612903654622615	-1.151400266387411	-1.151400266387359	-0.02244500318071862	0.3571799448823103	-0.6325098989777689	0.452629819487338	5.678651297935395e-07	7.068158165479764e-08	-7.329866244821764e-06	-3.390480878024175e-07	1.537654110034184e-06	2.118983916566466e-06	8.589250797244328e-07
1.51	-0.3492106147704591	0.05966419501692459	0.794104028539116	0.9925392760405021	-0.3607139655773841	-0.05032548162466394	-0.3234392528111992	0.8038923708117848	0.8038923708121714	-0.04446034900187169	-0.1699783267604559	0.2776303611011512	0.1527177968323373	0.510147340135502	0.2750712079180007	0.4951450569986878	-2.359476805226032	-0.001726702409143402	-0.6022262213463929	0.6254394826727023	-2.24066990223695	-2.240669902236941	-0.3162149484455474	0.05179373187152001	-0.5680056796714755	-0.2248513244236063	-0.1339776006407964	0.08178617163497785	0.00232727067816828	-0.1162022508289893	-0.04395951796264291	-0.01917587330999159	0.1257564430241661	-39.81518190686226	15.82537461674682	-3.404764419198636	1.170705265159135	-425.0026739869995	-20.13441371664435	-10.79887759474605	0.5854171157351633	0.4793736797405234	-0.8576344431369297	-1.048361044848128	0.2507480781545703	-0.2127971955656481	1.519493054192393	-1.005739625619202	-1.00573962562761	-0.3824730063556667	0.4413822638653578	-0.617066721127712	0.3247725519821322	5.641960126733966e-07	5.016176552800678e-07	-7.192737532549845e-06	-2.720072906024039e-07	1.564228552712237e-06	2.465789997260053e-06	8.706719521066679e-07
1.52	-0.3440812035829074	0.06243832508600275	0.7990114811903278	0.968896320340722	-0.3607173746745497	-0.05635882785342013	-0.3171094605132014	0.7814390102474031	0.7814390102475386	-0.04763810153372255	-0.1694374232618185	0.2719208399393411	0.1504876997659833	0.5156471737580528	0.2797053632797916	0.4862359199280358	-2.368788402883895	0.001024430824921968	-0.6042094902960657	0.6404122756868396	-2.249698093637767	-2.249698093637815	-0.3194584984233307	0.05651281818804118	-0.5738164952339696	-0.2211718747967114	-0.1295754751619168	0.08029097425725308	0.003480280104711699	-0.112994532899975	-0.0442445472500729	-0.02024679618202939	0.1220615507498032	-39.77404687542881	16.05467115780874	-3.180197897597605	1.50440169102383	-421.6466370632991	-20.16922537466883	-11.71551079225297	0.5053428554710677	0.4464270231888386	-0.9252374076245562	-0.7946903683606701	0.3279116812806734	-0.2413025938615494	1.484862167609246	-0.7878625884828488	-0.7878625884828816	-0.1709841851373312	0.4978050827580784	-0.5337909609898146	0.4539577911802435	3.880748178190178e-07	2.37840263215019e-06	-4.843956364237348e-06	8.301966050166961e-08	1.152909878719574e-06	2.658908489626721e-06	7.567231765308621e-07
1.53	-0.3388997740819839	0.06525730740120479	0.8038266764231873	0.9451708741038919	-0.3606914837787469	-0.06242050247550994	-0.3106328404285987	0.7589053884210097	0.7589053884209376	-0.05083763524544201	-0.1688548211281482	0.266156768388955	0.1482980076792842	0.5205454646757017	0.2840429714539587	0.476705012200511	-2.375965772296091	0.004156673887041187	-0.607986164976977	0.6548052895979918	-2.256695657536434	-2.256695657536437	-0.3204869007895352	0.06005209254441476	-0.5788874281966241	-0.2167341729710134	-0.1250777820815019	0.07846603779722709	0.004569245434159597	-0.1103133961540755	-0.04396580293931487	-0.02135892876404532	0.1183277904494107	-39.57121537655618	16.29641186684131	-2.983728319915196	1.676740400546927	-418.6003537643466	-20.26712421372552	-12.62764759388367	0.4680958636872443	0.4204280497058155	-0.9817732118996014	-0.6290013252276516	0.3051803360043964	-0.4246733219212543	1.400553257561975	-0.6061865174174594	-0.6061865174105912	-0.07331616403998596	0.2892195122433751	-0.4768918594714279	0.4420496680922166	2.872329037201542e-08	5.791402068717951e-06	-1.452944613817665e-07	7.440319001288035e-07	2.763297682642781e-07	2.688733919396039e-06	5.092227749996394e-07
1.54	-0.3336721569411294	0.06811826586518384	0.8085436114274545	0.9213837059534318	-0.3606344105088317	-0.06851570852779712	-0.3040154837539461	0.7363116943101248	0.7363116943101371	-0.05404836256048329	-0.1682353800712236	0.2603453580298419	0.1461533672688083	0.5248847017444168	0.2881005930351859	0.4665838742096998	-2.381132785611396	0.007260905642257152	-0.6109157763265187	0.6685595936969044	-2.261712550509457	-2.261712550509415	-0.3216972192228841	0.06388060290746515	-0.5832842569820117	-0.212161539552218	-0.1205800890010728	0.07664110133704322	0.005658210766026098	-0.1076322594082605	-0.04368705862864625	-0.02247106134638921	0.1145940301490673	-39.36680162220264	16.53721064146068	-2.786349827441983	1.8493355520395	-415.5158362093047	-20.36112224082312	-13.53493294193193	0.3935320856843307	0.3904297046007508	-1.043283460281858	-0.3926191489827059	0.3223094198999525	-0.07188992758758461	1.35712020516141	-0.3917284033538985	-0.3917284033538919	-0.2073673985662362	0.5556522840935001	-0.3989701255365695	0.4809441097996693	-1.059749946737171e-07	7.19451448895142e-06	1.581821641731075e-06	1.004760742181917e-06	-2.643989038243888e-08	2.805051021997568e-06	4.269650705500989e-07
1.55	-0.3284038669243772	0.07101825432570381	0.8131565367976529	0.8975546159091264	-0.3605471576254609	-0.0746323922319298	-0.2972643255236897	0.7136772412849964	0.713677241284991	-0.05727583975965276	-0.1675742148297941	0.2544928260862144	0.1440539267111028	0.5286672881936064	0.2918324892946872	0.4559145420207385	-2.384324565220123	0.01019895986004168	-0.6123894592239606	0.6815300597276099	-2.264852511011157	-2.264852511011179	-0.3237382446479294	0.06833540425420538	-0.5871265215072405	-0.2076912631935582	-0.1160627364066446	0.07482428633063276	0.006625514527204744	-0.105075990162344	-0.04362328681786221	-0.02368335224370944	0.1108003804079856	-39.26487560920503	16.84271509265674	-2.603013055586377	2.19643307490461	-412.7701690488288	-20.39113637167975	-14.43767951072018	0.3547420964038732	0.3550167049237867	-1.091650567836401	-0.2283339567899479	0.2805117406697739	-0.1798340311747014	1.245710908014068	-0.2264173823326789	-0.2264173823421982	-0.1926413343502722	0.387726453979511	-0.3622973013468182	0.4345823255208633	1.816632565591221e-08	6.281887520799855e-06	-1.147998070334019e-07	8.042934957258586e-07	3.319198845763438e-07	3.021021573731855e-06	5.350956909990079e-07
1.56	-0.323100927008772	0.07395365117247861	0.817660190352035	0.8737044327507463	-0.3604303325363264	-0.08076275807708812	-0.2903877224119271	0.6910211311531517	0.691021131153014	-0.06052176145736724	-0.1668690350959296	0.2486047829602598	0.1420000915023086	0.5318146815175127	0.2951822702861541	0.4447295110465257	-2.385351408427732	0.01317534679588764	-0.6136522045354702	0.6936485699978819	-2.266043971863045	-2.266043971863132	-0.3253861188680339	0.07268350136155499	-0.5903864934457047	-0.203040469770029	-0.1115453838120194	0.07300747132433623	0.007592818287256702	-0.1025197209163543	-0.04355951500704141	-0.02489564314084084	0.1070067306670591	-39.15962252198398	17.14594853261026	-2.41738524525279	2.523714507056128	-409.9680125943904	-20.46107332127179	-15.33653445513956	0.2664934606276937	0.3140066509938372	-1.146423217332163	0.04036813124108875	0.329975963512343	-0.0297024104010563	1.186729053074731	-0.002028473391624258	-0.002028473391624288	-0.1287371575781342	0.5343114362154008	-0.2825116081837503	0.5170475227735339	5.908031257912097e-08	5.878079948356241e-06	-8.069411779637774e-07	7.187632133068207e-07	4.557039166273066e-07	3.046253028716922e-06	5.778020415002818e-07
